<?xml version="1.0" encoding="utf-8"?>
<svg xmlns="http://www.w3.org/2000/svg" xmlns:xlink="http://www.w3.org/1999/xlink" width="200" height="300" viewBox="0 0 800 1200">
<defs>
  <clipPath id="clip810">
    <rect x="0" y="0" width="800" height="1200"/>
  </clipPath>
</defs>
<path clip-path="url(#clip810)" d="M0 1200 L800 1200 L800 0 L0 0  Z" fill="#ffffff" fill-rule="evenodd" fill-opacity="1"/>
<defs>
  <clipPath id="clip811">
    <rect x="240" y="120" width="800" height="841"/>
  </clipPath>
</defs>
<path clip-path="url(#clip810)" d="M204.931 961.235 L752.756 961.235 L752.756 140.752 L204.931 140.752  Z" fill="#ffffff" fill-rule="evenodd" fill-opacity="1"/>
<defs>
  <clipPath id="clip812">
    <rect x="204" y="140" width="549" height="821"/>
  </clipPath>
</defs>
<polyline clip-path="url(#clip810)" style="stroke:#000000; stroke-linecap:round; stroke-linejoin:round; stroke-width:4; stroke-opacity:1; fill:none" points="204.931,961.235 752.756,961.235 "/>
<polyline clip-path="url(#clip810)" style="stroke:#000000; stroke-linecap:round; stroke-linejoin:round; stroke-width:4; stroke-opacity:1; fill:none" points="204.931,140.752 752.756,140.752 "/>
<polyline clip-path="url(#clip810)" style="stroke:#000000; stroke-linecap:round; stroke-linejoin:round; stroke-width:4; stroke-opacity:1; fill:none" points="220.436,961.235 220.436,942.337 "/>
<polyline clip-path="url(#clip810)" style="stroke:#000000; stroke-linecap:round; stroke-linejoin:round; stroke-width:4; stroke-opacity:1; fill:none" points="478.844,961.235 478.844,942.337 "/>
<polyline clip-path="url(#clip810)" style="stroke:#000000; stroke-linecap:round; stroke-linejoin:round; stroke-width:4; stroke-opacity:1; fill:none" points="737.251,961.235 737.251,942.337 "/>
<polyline clip-path="url(#clip810)" style="stroke:#000000; stroke-linecap:round; stroke-linejoin:round; stroke-width:4; stroke-opacity:1; fill:none" points="335.985,961.235 335.985,951.786 "/>
<polyline clip-path="url(#clip810)" style="stroke:#000000; stroke-linecap:round; stroke-linejoin:round; stroke-width:4; stroke-opacity:1; fill:none" points="391.698,961.235 391.698,951.786 "/>
<polyline clip-path="url(#clip810)" style="stroke:#000000; stroke-linecap:round; stroke-linejoin:round; stroke-width:4; stroke-opacity:1; fill:none" points="428.759,961.235 428.759,951.786 "/>
<polyline clip-path="url(#clip810)" style="stroke:#000000; stroke-linecap:round; stroke-linejoin:round; stroke-width:4; stroke-opacity:1; fill:none" points="456.572,961.235 456.572,951.786 "/>
<polyline clip-path="url(#clip810)" style="stroke:#000000; stroke-linecap:round; stroke-linejoin:round; stroke-width:4; stroke-opacity:1; fill:none" points="594.393,961.235 594.393,951.786 "/>
<polyline clip-path="url(#clip810)" style="stroke:#000000; stroke-linecap:round; stroke-linejoin:round; stroke-width:4; stroke-opacity:1; fill:none" points="650.105,961.235 650.105,951.786 "/>
<polyline clip-path="url(#clip810)" style="stroke:#000000; stroke-linecap:round; stroke-linejoin:round; stroke-width:4; stroke-opacity:1; fill:none" points="687.167,961.235 687.167,951.786 "/>
<polyline clip-path="url(#clip810)" style="stroke:#000000; stroke-linecap:round; stroke-linejoin:round; stroke-width:4; stroke-opacity:1; fill:none" points="714.98,961.235 714.98,951.786 "/>
<path clip-path="url(#clip810)" d="M174.957 1000.82 L174.957 999.236 Q181.034 999.236 184.171 996 Q185.036 996 185.184 996.197 Q185.332 996.395 185.332 997.309 L185.332 1025.69 Q185.332 1027.2 186.073 1027.67 Q186.815 1028.14 190.051 1028.14 L191.656 1028.14 L191.656 1029.7 Q189.878 1029.55 183.455 1029.55 Q177.032 1029.55 175.278 1029.7 L175.278 1028.14 L176.884 1028.14 Q180.071 1028.14 180.836 1027.69 Q181.602 1027.22 181.602 1025.69 L181.602 999.483 Q178.959 1000.82 174.957 1000.82 Z" fill="#000000" fill-rule="nonzero" fill-opacity="1" /><path clip-path="url(#clip810)" d="M197.733 1013.51 Q197.733 1006.08 199.611 1002.03 Q202.229 996 208.405 996 Q209.715 996 211.073 996.37 Q212.457 996.716 214.186 998.075 Q215.94 999.433 217.002 1001.66 Q219.028 1005.96 219.028 1013.51 Q219.028 1020.9 217.15 1024.93 Q214.408 1030.81 208.356 1030.81 Q206.083 1030.81 203.761 1029.65 Q201.464 1028.48 200.006 1025.69 Q197.733 1021.52 197.733 1013.51 M201.933 1012.9 Q201.933 1020.53 202.476 1023.57 Q203.094 1026.85 204.774 1028.29 Q206.478 1029.7 208.356 1029.7 Q210.382 1029.7 212.061 1028.19 Q213.766 1026.66 214.285 1023.37 Q214.853 1020.13 214.828 1012.9 Q214.828 1005.86 214.334 1003.04 Q213.667 999.755 211.888 998.445 Q210.134 997.111 208.356 997.111 Q207.689 997.111 206.972 997.309 Q206.281 997.507 205.268 998.075 Q204.255 998.643 203.465 1000.05 Q202.699 1001.46 202.328 1003.58 Q201.933 1006.33 201.933 1012.9 Z" fill="#000000" fill-rule="nonzero" fill-opacity="1" /><path clip-path="url(#clip810)" d="M246.164 991.426 Q246.405 991.667 246.405 992.008 Q246.405 992.349 246.164 992.59 Q245.923 992.831 245.582 992.831 L219.851 992.831 Q219.509 992.831 219.269 992.59 Q219.028 992.349 219.028 992.008 Q219.028 991.667 219.269 991.426 Q219.509 991.185 219.851 991.185 L245.582 991.185 Q245.923 991.185 246.164 991.426 Z" fill="#000000" fill-rule="nonzero" fill-opacity="1" /><path clip-path="url(#clip810)" d="M252.346 978.821 L252.346 977.537 Q257.284 977.537 259.833 974.907 Q260.536 974.907 260.656 975.068 Q260.776 975.228 260.776 975.971 L260.776 999.033 Q260.776 1000.26 261.379 1000.64 Q261.981 1001.02 264.61 1001.02 L265.915 1001.02 L265.915 1002.28 Q264.47 1002.16 259.251 1002.16 Q254.032 1002.16 252.607 1002.28 L252.607 1001.02 L253.912 1001.02 Q256.501 1001.02 257.123 1000.66 Q257.746 1000.28 257.746 999.033 L257.746 977.737 Q255.598 978.821 252.346 978.821 Z" fill="#000000" fill-rule="nonzero" fill-opacity="1" /><path clip-path="url(#clip810)" d="M448.157 1000.82 L448.157 999.236 Q454.234 999.236 457.372 996 Q458.236 996 458.385 996.197 Q458.533 996.395 458.533 997.309 L458.533 1025.69 Q458.533 1027.2 459.274 1027.67 Q460.015 1028.14 463.251 1028.14 L464.857 1028.14 L464.857 1029.7 Q463.078 1029.55 456.655 1029.55 Q450.232 1029.55 448.479 1029.7 L448.479 1028.14 L450.084 1028.14 Q453.271 1028.14 454.037 1027.69 Q454.803 1027.22 454.803 1025.69 L454.803 999.483 Q452.159 1000.82 448.157 1000.82 Z" fill="#000000" fill-rule="nonzero" fill-opacity="1" /><path clip-path="url(#clip810)" d="M470.934 1013.51 Q470.934 1006.08 472.811 1002.03 Q475.43 996 481.606 996 Q482.915 996 484.274 996.37 Q485.657 996.716 487.386 998.075 Q489.14 999.433 490.203 1001.66 Q492.228 1005.96 492.228 1013.51 Q492.228 1020.9 490.351 1024.93 Q487.609 1030.81 481.556 1030.81 Q479.284 1030.81 476.962 1029.65 Q474.664 1028.48 473.207 1025.69 Q470.934 1021.52 470.934 1013.51 M475.133 1012.9 Q475.133 1020.53 475.677 1023.57 Q476.295 1026.85 477.974 1028.29 Q479.679 1029.7 481.556 1029.7 Q483.582 1029.7 485.262 1028.19 Q486.966 1026.66 487.485 1023.37 Q488.053 1020.13 488.029 1012.9 Q488.029 1005.86 487.535 1003.04 Q486.868 999.755 485.089 998.445 Q483.335 997.111 481.556 997.111 Q480.889 997.111 480.173 997.309 Q479.481 997.507 478.468 998.075 Q477.456 998.643 476.665 1000.05 Q475.899 1001.46 475.529 1003.58 Q475.133 1006.33 475.133 1012.9 Z" fill="#000000" fill-rule="nonzero" fill-opacity="1" /><path clip-path="url(#clip810)" d="M492.228 989.138 Q492.228 983.096 493.754 979.805 Q495.881 974.907 500.899 974.907 Q501.963 974.907 503.067 975.208 Q504.191 975.489 505.596 976.593 Q507.021 977.697 507.884 979.504 Q509.53 982.996 509.53 989.138 Q509.53 995.139 508.004 998.411 Q505.776 1003.19 500.859 1003.19 Q499.012 1003.19 497.126 1002.24 Q495.259 1001.3 494.075 999.033 Q492.228 995.641 492.228 989.138 M495.64 988.636 Q495.64 994.838 496.082 997.307 Q496.584 999.976 497.949 1001.14 Q499.334 1002.28 500.859 1002.28 Q502.505 1002.28 503.87 1001.06 Q505.255 999.816 505.676 997.146 Q506.138 994.517 506.118 988.636 Q506.118 982.916 505.716 980.628 Q505.174 977.958 503.729 976.894 Q502.304 975.81 500.859 975.81 Q500.317 975.81 499.735 975.971 Q499.173 976.132 498.35 976.593 Q497.527 977.055 496.885 978.199 Q496.263 979.343 495.961 981.069 Q495.64 983.297 495.64 988.636 Z" fill="#000000" fill-rule="nonzero" fill-opacity="1" /><path clip-path="url(#clip810)" d="M708.432 1000.82 L708.432 999.236 Q714.509 999.236 717.646 996 Q718.511 996 718.659 996.197 Q718.807 996.395 718.807 997.309 L718.807 1025.69 Q718.807 1027.2 719.548 1027.67 Q720.289 1028.14 723.526 1028.14 L725.131 1028.14 L725.131 1029.7 Q723.353 1029.55 716.93 1029.55 Q710.507 1029.55 708.753 1029.7 L708.753 1028.14 L710.359 1028.14 Q713.545 1028.14 714.311 1027.69 Q715.077 1027.22 715.077 1025.69 L715.077 999.483 Q712.434 1000.82 708.432 1000.82 Z" fill="#000000" fill-rule="nonzero" fill-opacity="1" /><path clip-path="url(#clip810)" d="M731.208 1013.51 Q731.208 1006.08 733.086 1002.03 Q735.704 996 741.88 996 Q743.19 996 744.548 996.37 Q745.932 996.716 747.661 998.075 Q749.415 999.433 750.477 1001.66 Q752.503 1005.96 752.503 1013.51 Q752.503 1020.9 750.625 1024.93 Q747.883 1030.81 741.831 1030.81 Q739.558 1030.81 737.236 1029.65 Q734.939 1028.48 733.481 1025.69 Q731.208 1021.52 731.208 1013.51 M735.408 1012.9 Q735.408 1020.53 735.951 1023.57 Q736.569 1026.85 738.249 1028.29 Q739.953 1029.7 741.831 1029.7 Q743.856 1029.7 745.536 1028.19 Q747.241 1026.66 747.76 1023.37 Q748.328 1020.13 748.303 1012.9 Q748.303 1005.86 747.809 1003.04 Q747.142 999.755 745.363 998.445 Q743.609 997.111 741.831 997.111 Q741.164 997.111 740.447 997.309 Q739.756 997.507 738.743 998.075 Q737.73 998.643 736.94 1000.05 Q736.174 1001.46 735.803 1003.58 Q735.408 1006.33 735.408 1012.9 Z" fill="#000000" fill-rule="nonzero" fill-opacity="1" /><path clip-path="url(#clip810)" d="M752.503 978.821 L752.503 977.537 Q757.44 977.537 759.989 974.907 Q760.692 974.907 760.812 975.068 Q760.933 975.228 760.933 975.971 L760.933 999.033 Q760.933 1000.26 761.535 1000.64 Q762.137 1001.02 764.766 1001.02 L766.071 1001.02 L766.071 1002.28 Q764.626 1002.16 759.407 1002.16 Q754.189 1002.16 752.764 1002.28 L752.764 1001.02 L754.068 1001.02 Q756.657 1001.02 757.28 1000.66 Q757.902 1000.28 757.902 999.033 L757.902 977.737 Q755.754 978.821 752.503 978.821 Z" fill="#000000" fill-rule="nonzero" fill-opacity="1" /><path clip-path="url(#clip810)" d="M311.684 1048.95 L311.684 1046.58 Q319.873 1046.8 321.318 1046.8 Q329.433 1046.8 332.175 1046.58 L332.175 1048.95 Q325.95 1048.95 325.95 1051.14 Q325.95 1051.43 326.395 1052.51 L340.883 1090.82 L354.779 1054.25 Q355.149 1053.1 355.149 1052.73 Q355.149 1051.21 353.741 1050.14 Q352.37 1049.03 349.628 1048.95 L349.628 1046.58 Q355.557 1046.8 358.262 1046.8 Q362.116 1046.8 365.636 1046.58 L365.636 1048.95 Q359.263 1049.03 357.373 1054.03 L340.439 1098.64 Q340.142 1099.57 339.846 1099.83 Q339.549 1100.09 338.623 1100.09 Q337.882 1100.09 337.474 1099.79 Q337.104 1099.49 336.733 1098.42 L319.132 1051.84 Q318.391 1049.8 317.057 1049.4 Q315.723 1048.95 311.684 1048.95 Z" fill="#000000" fill-rule="nonzero" fill-opacity="1" /><path clip-path="url(#clip810)" d="M364.043 1091.19 Q364.043 1084.75 371.639 1081.34 Q376.197 1079.15 385.609 1078.6 L385.609 1075.82 Q385.609 1071.11 383.126 1068.63 Q380.68 1066.11 377.568 1066.11 Q372.009 1066.11 369.342 1069.59 Q371.602 1069.67 372.417 1070.81 Q373.232 1071.93 373.232 1073.07 Q373.232 1074.59 372.269 1075.59 Q371.342 1076.56 369.749 1076.56 Q368.23 1076.56 367.229 1075.63 Q366.229 1074.67 366.229 1073 Q366.229 1069.29 369.564 1066.85 Q372.936 1064.4 377.716 1064.4 Q383.941 1064.4 388.091 1068.59 Q389.388 1069.89 390.018 1071.56 Q390.685 1073.22 390.759 1074.33 Q390.833 1075.41 390.833 1077.56 L390.833 1092.71 Q390.833 1093.16 390.982 1093.9 Q391.13 1094.64 391.797 1095.6 Q392.501 1096.53 393.65 1096.53 Q396.392 1096.53 396.355 1091.68 L396.355 1087.41 L398.282 1087.41 L398.282 1091.68 Q398.282 1095.72 396.132 1097.31 Q394.02 1098.86 392.056 1098.86 Q389.537 1098.86 387.943 1097.01 Q386.35 1095.16 386.127 1092.64 Q384.979 1095.53 382.348 1097.42 Q379.754 1099.27 376.197 1099.27 Q373.455 1099.27 370.861 1098.57 Q368.304 1097.9 366.155 1096.01 Q364.043 1094.08 364.043 1091.19 M369.897 1091.12 Q369.897 1093.94 371.898 1095.75 Q373.899 1097.57 376.715 1097.57 Q379.902 1097.57 382.755 1095.12 Q385.609 1092.64 385.609 1087.79 L385.609 1080.19 Q377.197 1080.49 373.529 1083.86 Q369.897 1087.19 369.897 1091.12 Z" fill="#000000" fill-rule="nonzero" fill-opacity="1" /><path clip-path="url(#clip810)" d="M400.912 1098.42 L400.912 1096.09 Q404.951 1096.09 405.878 1095.6 Q406.841 1095.09 406.841 1092.64 L406.841 1072.3 Q406.841 1069.48 405.841 1068.78 Q404.877 1068.07 400.912 1068.07 L400.912 1065.7 L411.473 1064.89 L411.473 1073.22 Q412.548 1069.96 414.808 1067.44 Q417.105 1064.89 420.811 1064.89 Q423.257 1064.89 424.813 1066.26 Q426.406 1067.63 426.406 1069.52 Q426.406 1071.18 425.369 1072.04 Q424.368 1072.85 423.145 1072.85 Q421.774 1072.85 420.811 1072 Q419.885 1071.11 419.885 1069.59 Q419.885 1068.67 420.292 1067.96 Q420.737 1067.22 421.07 1066.96 Q421.404 1066.7 421.626 1066.63 Q421.478 1066.55 420.811 1066.55 Q416.624 1066.55 414.215 1070.74 Q411.844 1074.89 411.844 1080.82 L411.844 1092.49 Q411.844 1094.68 412.733 1095.38 Q413.659 1096.09 417.624 1096.09 L419.218 1096.09 L419.218 1098.42 Q416.179 1098.2 409.583 1098.2 Q408.657 1098.2 407.212 1098.23 Q405.767 1098.27 403.877 1098.35 Q401.987 1098.42 400.912 1098.42 Z" fill="#000000" fill-rule="nonzero" fill-opacity="1" /><path clip-path="url(#clip810)" d="M435.912 1080.43 Q435.912 1068.28 440.444 1058.47 Q442.377 1054.36 445.082 1050.92 Q447.787 1047.48 449.579 1045.97 Q451.371 1044.45 451.863 1044.45 Q452.565 1044.45 452.6 1045.16 Q452.6 1045.51 451.652 1046.39 Q440.058 1058.19 440.093 1080.43 Q440.093 1102.74 451.371 1114.09 Q452.6 1115.32 452.6 1115.71 Q452.6 1116.41 451.863 1116.41 Q451.371 1116.41 449.649 1114.97 Q447.928 1113.53 445.258 1110.23 Q442.587 1106.92 440.655 1102.88 Q435.912 1093.08 435.912 1080.43 Z" fill="#000000" fill-rule="nonzero" fill-opacity="1" /><path clip-path="url(#clip810)" d="M486.878 1090.09 Q487.16 1090.41 487.16 1090.73 Q487.16 1091.04 486.457 1091.96 Q485.789 1092.87 484.349 1094.1 Q482.908 1095.33 481.046 1096.49 Q479.184 1097.65 476.444 1098.42 Q473.703 1099.23 470.822 1099.23 Q465.658 1099.23 462.566 1095.54 Q459.509 1091.85 459.509 1086.19 Q459.509 1082.57 460.704 1079.38 Q461.898 1076.15 463.831 1073.86 Q465.798 1071.58 468.258 1069.93 Q470.752 1068.24 473.352 1067.43 Q475.952 1066.62 478.376 1066.62 Q481.925 1066.62 483.998 1068.42 Q486.07 1070.21 486.07 1072.74 Q486.07 1073.33 485.895 1074.07 Q485.754 1074.81 485.262 1075.97 Q484.806 1077.13 483.611 1078.29 Q482.416 1079.41 480.66 1080.15 Q476.76 1081.8 469.663 1081.8 L465.833 1081.8 Q464.709 1086.33 464.709 1089.29 Q464.709 1090.44 464.92 1091.64 Q465.131 1092.8 465.693 1094.27 Q466.29 1095.75 467.625 1096.7 Q468.995 1097.61 470.963 1097.61 Q471.595 1097.61 472.263 1097.58 Q472.966 1097.54 474.722 1097.16 Q476.514 1096.77 478.095 1096.1 Q479.676 1095.43 481.679 1093.99 Q483.716 1092.52 485.333 1090.52 Q485.895 1089.78 486.281 1089.78 Q486.597 1089.78 486.878 1090.09 M483.681 1072.74 Q483.681 1070.81 482.241 1069.51 Q480.835 1068.21 478.376 1068.21 Q477.603 1068.21 476.655 1068.38 Q475.706 1068.56 474.125 1069.29 Q472.579 1070.03 471.209 1071.26 Q469.839 1072.46 468.468 1074.81 Q467.098 1077.13 466.29 1080.22 L469.241 1080.22 Q470.26 1080.22 470.998 1080.22 Q471.736 1080.19 473.352 1080.05 Q475.003 1079.9 476.198 1079.66 Q477.392 1079.38 478.903 1078.82 Q480.414 1078.25 481.362 1077.52 Q482.346 1076.74 483.014 1075.51 Q483.681 1074.28 483.681 1072.74 Z" fill="#000000" fill-rule="nonzero" fill-opacity="1" /><path clip-path="url(#clip810)" d="M494.146 1115.71 Q494.146 1115.35 495.06 1114.48 Q506.654 1102.67 506.654 1080.43 Q506.654 1058.12 495.517 1046.84 Q494.146 1045.54 494.146 1045.16 Q494.146 1044.45 494.849 1044.45 Q495.341 1044.45 497.062 1045.9 Q498.819 1047.34 501.454 1050.64 Q504.124 1053.94 506.092 1057.98 Q510.835 1067.78 510.835 1080.43 Q510.835 1092.59 506.303 1102.39 Q504.37 1106.5 501.665 1109.94 Q498.96 1113.39 497.168 1114.9 Q495.376 1116.41 494.849 1116.41 Q494.146 1116.41 494.146 1115.71 Z" fill="#000000" fill-rule="nonzero" fill-opacity="1" /><path clip-path="url(#clip810)" d="M521.776 1115.39 Q521.776 1115.04 522.057 1114.27 L547.458 1046.39 Q547.458 1046.32 547.634 1045.93 Q547.81 1045.54 547.915 1045.3 Q548.021 1045.02 548.231 1044.81 Q548.477 1044.6 548.758 1044.6 Q549.461 1044.6 549.461 1045.47 Q549.461 1045.54 549.25 1046.39 L523.778 1114.34 Q523.357 1115.57 523.076 1115.92 Q522.83 1116.27 522.408 1116.27 Q521.776 1116.27 521.776 1115.39 Z" fill="#000000" fill-rule="nonzero" fill-opacity="1" /><path clip-path="url(#clip810)" d="M573.675 1114.97 Q573.675 1115.57 573.254 1115.99 Q572.832 1116.41 572.235 1116.41 Q571.216 1116.41 570.865 1115.46 L557.479 1080.92 Q557.408 1080.78 557.408 1080.43 Q557.408 1080.08 557.479 1079.94 L570.865 1045.4 Q571.216 1044.45 572.235 1044.45 Q572.832 1044.45 573.254 1044.88 Q573.675 1045.3 573.675 1045.9 Q573.675 1046.25 573.605 1046.39 L560.36 1080.43 L573.605 1114.48 Q573.675 1114.62 573.675 1114.97 Z" fill="#000000" fill-rule="nonzero" fill-opacity="1" /><path clip-path="url(#clip810)" d="M612.477 1090.09 Q612.758 1090.41 612.758 1090.73 Q612.758 1091.04 612.055 1091.96 Q611.387 1092.87 609.947 1094.1 Q608.506 1095.33 606.644 1096.49 Q604.782 1097.65 602.042 1098.42 Q599.301 1099.23 596.42 1099.23 Q591.256 1099.23 588.164 1095.54 Q585.107 1091.85 585.107 1086.19 Q585.107 1082.57 586.302 1079.38 Q587.497 1076.15 589.429 1073.86 Q591.396 1071.58 593.856 1069.93 Q596.35 1068.24 598.95 1067.43 Q601.55 1066.62 603.974 1066.62 Q607.523 1066.62 609.596 1068.42 Q611.668 1070.21 611.668 1072.74 Q611.668 1073.33 611.493 1074.07 Q611.352 1074.81 610.86 1075.97 Q610.404 1077.13 609.209 1078.29 Q608.015 1079.41 606.258 1080.15 Q602.358 1081.8 595.261 1081.8 L591.431 1081.8 Q590.307 1086.33 590.307 1089.29 Q590.307 1090.44 590.518 1091.64 Q590.729 1092.8 591.291 1094.27 Q591.888 1095.75 593.223 1096.7 Q594.594 1097.61 596.561 1097.61 Q597.193 1097.61 597.861 1097.58 Q598.564 1097.54 600.32 1097.16 Q602.112 1096.77 603.693 1096.1 Q605.274 1095.43 607.277 1093.99 Q609.315 1092.52 610.931 1090.52 Q611.493 1089.78 611.879 1089.78 Q612.195 1089.78 612.477 1090.09 M609.279 1072.74 Q609.279 1070.81 607.839 1069.51 Q606.434 1068.21 603.974 1068.21 Q603.201 1068.21 602.253 1068.38 Q601.304 1068.56 599.723 1069.29 Q598.177 1070.03 596.807 1071.26 Q595.437 1072.46 594.067 1074.81 Q592.696 1077.13 591.888 1080.22 L594.839 1080.22 Q595.858 1080.22 596.596 1080.22 Q597.334 1080.19 598.95 1080.05 Q600.601 1079.9 601.796 1079.66 Q602.99 1079.38 604.501 1078.82 Q606.012 1078.25 606.961 1077.52 Q607.944 1076.74 608.612 1075.51 Q609.279 1074.28 609.279 1072.74 Z" fill="#000000" fill-rule="nonzero" fill-opacity="1" /><path clip-path="url(#clip810)" d="M634.466 1079.94 Q634.536 1080.08 634.536 1080.43 Q634.536 1080.78 634.466 1080.92 L621.08 1115.46 Q620.729 1116.41 619.745 1116.41 Q619.148 1116.41 618.726 1115.99 Q618.304 1115.57 618.304 1114.97 Q618.304 1114.62 618.375 1114.48 L631.585 1080.43 L618.375 1046.39 Q618.304 1046.25 618.304 1045.9 Q618.304 1045.3 618.726 1044.88 Q619.148 1044.45 619.745 1044.45 Q620.729 1044.45 621.08 1045.4 L634.466 1079.94 Z" fill="#000000" fill-rule="nonzero" fill-opacity="1" /><polyline clip-path="url(#clip810)" style="stroke:#000000; stroke-linecap:round; stroke-linejoin:round; stroke-width:4; stroke-opacity:1; fill:none" points="204.931,961.235 204.931,140.752 "/>
<polyline clip-path="url(#clip810)" style="stroke:#000000; stroke-linecap:round; stroke-linejoin:round; stroke-width:4; stroke-opacity:1; fill:none" points="752.756,961.235 752.756,140.752 "/>
<polyline clip-path="url(#clip810)" style="stroke:#000000; stroke-linecap:round; stroke-linejoin:round; stroke-width:4; stroke-opacity:1; fill:none" points="204.931,938.039 223.829,938.039 "/>
<polyline clip-path="url(#clip810)" style="stroke:#000000; stroke-linecap:round; stroke-linejoin:round; stroke-width:4; stroke-opacity:1; fill:none" points="204.931,676.368 223.829,676.368 "/>
<polyline clip-path="url(#clip810)" style="stroke:#000000; stroke-linecap:round; stroke-linejoin:round; stroke-width:4; stroke-opacity:1; fill:none" points="204.931,414.697 223.829,414.697 "/>
<polyline clip-path="url(#clip810)" style="stroke:#000000; stroke-linecap:round; stroke-linejoin:round; stroke-width:4; stroke-opacity:1; fill:none" points="204.931,153.026 223.829,153.026 "/>
<polyline clip-path="url(#clip810)" style="stroke:#000000; stroke-linecap:round; stroke-linejoin:round; stroke-width:4; stroke-opacity:1; fill:none" points="204.931,885.705 214.38,885.705 "/>
<polyline clip-path="url(#clip810)" style="stroke:#000000; stroke-linecap:round; stroke-linejoin:round; stroke-width:4; stroke-opacity:1; fill:none" points="204.931,833.371 214.38,833.371 "/>
<polyline clip-path="url(#clip810)" style="stroke:#000000; stroke-linecap:round; stroke-linejoin:round; stroke-width:4; stroke-opacity:1; fill:none" points="204.931,781.036 214.38,781.036 "/>
<polyline clip-path="url(#clip810)" style="stroke:#000000; stroke-linecap:round; stroke-linejoin:round; stroke-width:4; stroke-opacity:1; fill:none" points="204.931,728.702 214.38,728.702 "/>
<polyline clip-path="url(#clip810)" style="stroke:#000000; stroke-linecap:round; stroke-linejoin:round; stroke-width:4; stroke-opacity:1; fill:none" points="204.931,624.034 214.38,624.034 "/>
<polyline clip-path="url(#clip810)" style="stroke:#000000; stroke-linecap:round; stroke-linejoin:round; stroke-width:4; stroke-opacity:1; fill:none" points="204.931,571.7 214.38,571.7 "/>
<polyline clip-path="url(#clip810)" style="stroke:#000000; stroke-linecap:round; stroke-linejoin:round; stroke-width:4; stroke-opacity:1; fill:none" points="204.931,519.365 214.38,519.365 "/>
<polyline clip-path="url(#clip810)" style="stroke:#000000; stroke-linecap:round; stroke-linejoin:round; stroke-width:4; stroke-opacity:1; fill:none" points="204.931,467.031 214.38,467.031 "/>
<polyline clip-path="url(#clip810)" style="stroke:#000000; stroke-linecap:round; stroke-linejoin:round; stroke-width:4; stroke-opacity:1; fill:none" points="204.931,362.363 214.38,362.363 "/>
<polyline clip-path="url(#clip810)" style="stroke:#000000; stroke-linecap:round; stroke-linejoin:round; stroke-width:4; stroke-opacity:1; fill:none" points="204.931,310.028 214.38,310.028 "/>
<polyline clip-path="url(#clip810)" style="stroke:#000000; stroke-linecap:round; stroke-linejoin:round; stroke-width:4; stroke-opacity:1; fill:none" points="204.931,257.694 214.38,257.694 "/>
<polyline clip-path="url(#clip810)" style="stroke:#000000; stroke-linecap:round; stroke-linejoin:round; stroke-width:4; stroke-opacity:1; fill:none" points="204.931,205.36 214.38,205.36 "/>
<path clip-path="url(#clip810)" d="M126.285 939.138 Q126.285 931.703 128.162 927.651 Q130.781 921.624 136.956 921.624 Q138.266 921.624 139.624 921.994 Q141.008 922.34 142.737 923.699 Q144.491 925.057 145.553 927.281 Q147.579 931.579 147.579 939.138 Q147.579 946.525 145.701 950.551 Q142.959 956.431 136.907 956.431 Q134.634 956.431 132.312 955.27 Q130.015 954.108 128.557 951.317 Q126.285 947.142 126.285 939.138 M130.484 938.521 Q130.484 946.154 131.028 949.192 Q131.645 952.478 133.325 953.911 Q135.03 955.319 136.907 955.319 Q138.933 955.319 140.613 953.812 Q142.317 952.28 142.836 948.995 Q143.404 945.759 143.379 938.521 Q143.379 931.48 142.885 928.664 Q142.218 925.378 140.44 924.069 Q138.686 922.735 136.907 922.735 Q136.24 922.735 135.524 922.933 Q134.832 923.13 133.819 923.699 Q132.806 924.267 132.016 925.675 Q131.25 927.083 130.879 929.207 Q130.484 931.95 130.484 938.521 Z" fill="#000000" fill-rule="nonzero" fill-opacity="1" /><path clip-path="url(#clip810)" d="M154.669 954.504 Q153.903 953.689 153.903 952.626 Q153.903 951.564 154.669 950.798 Q155.435 950.008 156.596 950.008 Q157.707 950.008 158.448 950.749 Q159.214 951.465 159.214 952.651 Q159.214 953.812 158.399 954.578 Q157.608 955.319 156.596 955.319 Q155.435 955.319 154.669 954.504 Z" fill="#000000" fill-rule="nonzero" fill-opacity="1" /><path clip-path="url(#clip810)" d="M165.637 939.138 Q165.637 931.703 167.514 927.651 Q170.133 921.624 176.309 921.624 Q177.618 921.624 178.977 921.994 Q180.36 922.34 182.089 923.699 Q183.843 925.057 184.906 927.281 Q186.931 931.579 186.931 939.138 Q186.931 946.525 185.054 950.551 Q182.312 956.431 176.259 956.431 Q173.987 956.431 171.665 955.27 Q169.367 954.108 167.91 951.317 Q165.637 947.142 165.637 939.138 M169.837 938.521 Q169.837 946.154 170.38 949.192 Q170.998 952.478 172.677 953.911 Q174.382 955.319 176.259 955.319 Q178.285 955.319 179.965 953.812 Q181.67 952.28 182.188 948.995 Q182.756 945.759 182.732 938.521 Q182.732 931.48 182.238 928.664 Q181.571 925.378 179.792 924.069 Q178.038 922.735 176.259 922.735 Q175.592 922.735 174.876 922.933 Q174.184 923.13 173.172 923.699 Q172.159 924.267 171.368 925.675 Q170.602 927.083 170.232 929.207 Q169.837 931.95 169.837 938.521 Z" fill="#000000" fill-rule="nonzero" fill-opacity="1" /><path clip-path="url(#clip810)" d="M128.36 677.467 Q128.36 670.032 130.237 665.98 Q132.856 659.953 139.032 659.953 Q140.341 659.953 141.699 660.323 Q143.083 660.669 144.812 662.028 Q146.566 663.386 147.628 665.61 Q149.654 669.908 149.654 677.467 Q149.654 684.854 147.776 688.88 Q145.034 694.76 138.982 694.76 Q136.709 694.76 134.387 693.599 Q132.09 692.437 130.632 689.646 Q128.36 685.471 128.36 677.467 M132.559 676.85 Q132.559 684.483 133.103 687.521 Q133.72 690.807 135.4 692.24 Q137.105 693.648 138.982 693.648 Q141.008 693.648 142.688 692.141 Q144.392 690.609 144.911 687.324 Q145.479 684.088 145.454 676.85 Q145.454 669.809 144.96 666.993 Q144.293 663.707 142.515 662.398 Q140.761 661.064 138.982 661.064 Q138.315 661.064 137.599 661.262 Q136.907 661.459 135.894 662.028 Q134.881 662.596 134.091 664.004 Q133.325 665.412 132.954 667.536 Q132.559 670.279 132.559 676.85 Z" fill="#000000" fill-rule="nonzero" fill-opacity="1" /><path clip-path="url(#clip810)" d="M156.744 692.833 Q155.978 692.017 155.978 690.955 Q155.978 689.893 156.744 689.127 Q157.51 688.337 158.671 688.337 Q159.782 688.337 160.523 689.078 Q161.289 689.794 161.289 690.98 Q161.289 692.141 160.474 692.907 Q159.684 693.648 158.671 693.648 Q157.51 693.648 156.744 692.833 Z" fill="#000000" fill-rule="nonzero" fill-opacity="1" /><path clip-path="url(#clip810)" d="M170.232 664.77 L170.232 663.189 Q176.309 663.189 179.446 659.953 Q180.311 659.953 180.459 660.15 Q180.607 660.348 180.607 661.262 L180.607 689.646 Q180.607 691.153 181.348 691.622 Q182.089 692.092 185.326 692.092 L186.931 692.092 L186.931 693.648 Q185.153 693.5 178.73 693.5 Q172.307 693.5 170.553 693.648 L170.553 692.092 L172.159 692.092 Q175.345 692.092 176.111 691.647 Q176.877 691.178 176.877 689.646 L176.877 663.436 Q174.234 664.77 170.232 664.77 Z" fill="#000000" fill-rule="nonzero" fill-opacity="1" /><path clip-path="url(#clip810)" d="M126.828 415.796 Q126.828 408.36 128.706 404.309 Q131.324 398.282 137.5 398.282 Q138.809 398.282 140.168 398.652 Q141.551 398.998 143.28 400.357 Q145.034 401.715 146.097 403.939 Q148.122 408.237 148.122 415.796 Q148.122 423.183 146.245 427.209 Q143.503 433.089 137.45 433.089 Q135.178 433.089 132.856 431.927 Q130.558 430.766 129.101 427.975 Q126.828 423.8 126.828 415.796 M131.028 415.179 Q131.028 422.812 131.571 425.85 Q132.189 429.136 133.869 430.569 Q135.573 431.977 137.45 431.977 Q139.476 431.977 141.156 430.47 Q142.861 428.938 143.379 425.653 Q143.947 422.417 143.923 415.179 Q143.923 408.138 143.429 405.322 Q142.762 402.036 140.983 400.727 Q139.229 399.393 137.45 399.393 Q136.784 399.393 136.067 399.591 Q135.375 399.788 134.363 400.357 Q133.35 400.925 132.559 402.333 Q131.793 403.741 131.423 405.865 Q131.028 408.608 131.028 415.179 Z" fill="#000000" fill-rule="nonzero" fill-opacity="1" /><path clip-path="url(#clip810)" d="M155.212 431.162 Q154.446 430.346 154.446 429.284 Q154.446 428.222 155.212 427.456 Q155.978 426.666 157.139 426.666 Q158.251 426.666 158.992 427.407 Q159.758 428.123 159.758 429.309 Q159.758 430.47 158.942 431.236 Q158.152 431.977 157.139 431.977 Q155.978 431.977 155.212 431.162 Z" fill="#000000" fill-rule="nonzero" fill-opacity="1" /><path clip-path="url(#clip810)" d="M166.724 431.977 Q166.724 431.063 166.798 430.791 Q166.897 430.519 167.292 430.099 L177.001 419.279 Q182.312 413.301 182.312 408.089 Q182.312 404.704 180.533 402.283 Q178.779 399.863 175.543 399.863 Q173.32 399.863 171.442 401.221 Q169.565 402.58 168.7 405.001 Q168.848 404.951 169.367 404.951 Q170.627 404.951 171.319 405.742 Q172.035 406.532 172.035 407.595 Q172.035 408.953 171.146 409.62 Q170.281 410.263 169.417 410.263 Q169.071 410.263 168.601 410.189 Q168.157 410.114 167.44 409.423 Q166.724 408.706 166.724 407.446 Q166.724 403.914 169.392 401.098 Q172.085 398.282 176.185 398.282 Q180.83 398.282 183.868 401.048 Q186.931 403.79 186.931 408.089 Q186.931 409.596 186.462 410.979 Q186.017 412.338 185.4 413.4 Q184.807 414.462 183.176 416.167 Q181.546 417.871 180.237 419.082 Q178.927 420.292 175.988 422.861 L170.627 428.074 L179.743 428.074 Q184.189 428.074 184.535 427.679 Q185.029 426.962 185.647 423.183 L186.931 423.183 L185.499 431.977 L166.724 431.977 Z" fill="#000000" fill-rule="nonzero" fill-opacity="1" /><path clip-path="url(#clip810)" d="M126.433 154.125 Q126.433 146.689 128.31 142.638 Q130.929 136.61 137.105 136.61 Q138.414 136.61 139.773 136.981 Q141.156 137.327 142.885 138.686 Q144.639 140.044 145.701 142.268 Q147.727 146.566 147.727 154.125 Q147.727 161.511 145.85 165.538 Q143.108 171.418 137.055 171.418 Q134.783 171.418 132.46 170.256 Q130.163 169.095 128.706 166.304 Q126.433 162.129 126.433 154.125 M130.632 153.508 Q130.632 161.141 131.176 164.179 Q131.793 167.465 133.473 168.898 Q135.178 170.306 137.055 170.306 Q139.081 170.306 140.761 168.799 Q142.465 167.267 142.984 163.982 Q143.552 160.746 143.528 153.508 Q143.528 146.467 143.033 143.651 Q142.366 140.365 140.588 139.056 Q138.834 137.722 137.055 137.722 Q136.388 137.722 135.672 137.92 Q134.98 138.117 133.967 138.686 Q132.954 139.254 132.164 140.662 Q131.398 142.07 131.028 144.194 Q130.632 146.937 130.632 153.508 Z" fill="#000000" fill-rule="nonzero" fill-opacity="1" /><path clip-path="url(#clip810)" d="M154.817 169.491 Q154.051 168.675 154.051 167.613 Q154.051 166.551 154.817 165.785 Q155.583 164.995 156.744 164.995 Q157.855 164.995 158.597 165.736 Q159.362 166.452 159.362 167.638 Q159.362 168.799 158.547 169.565 Q157.757 170.306 156.744 170.306 Q155.583 170.306 154.817 169.491 Z" fill="#000000" fill-rule="nonzero" fill-opacity="1" /><path clip-path="url(#clip810)" d="M165.933 163.488 Q165.933 161.981 166.798 161.264 Q167.663 160.548 168.774 160.548 Q169.935 160.548 170.751 161.314 Q171.591 162.055 171.591 163.364 Q171.591 164.772 170.602 165.563 Q169.639 166.353 168.256 166.156 Q169.466 168.181 171.689 169.095 Q173.937 170.009 176.012 170.009 Q178.186 170.009 179.94 168.132 Q181.719 166.255 181.719 161.66 Q181.719 157.757 180.187 155.509 Q178.68 153.261 175.691 153.261 L173.468 153.261 Q172.702 153.261 172.48 153.186 Q172.258 153.112 172.258 152.692 Q172.258 152.198 173.023 152.1 Q173.789 152.1 175 151.951 Q177.939 151.852 179.496 149.308 Q180.904 146.937 180.904 143.552 Q180.904 140.464 179.422 139.18 Q177.964 137.87 176.062 137.87 Q174.283 137.87 172.332 138.611 Q170.38 139.353 169.318 141.008 Q172.455 141.008 172.455 143.552 Q172.455 144.664 171.739 145.405 Q171.047 146.121 169.886 146.121 Q168.774 146.121 168.033 145.43 Q167.292 144.713 167.292 143.503 Q167.292 140.612 169.861 138.611 Q172.455 136.61 176.259 136.61 Q180.014 136.61 182.781 138.587 Q185.573 140.563 185.573 143.602 Q185.573 146.591 183.596 149.036 Q181.62 151.482 178.483 152.495 Q182.336 153.261 184.634 155.879 Q186.931 158.473 186.931 161.66 Q186.931 165.612 183.819 168.527 Q180.706 171.418 176.161 171.418 Q171.961 171.418 168.947 169.145 Q165.933 166.872 165.933 163.488 Z" fill="#000000" fill-rule="nonzero" fill-opacity="1" /><path clip-path="url(#clip810)" d="M77.3093 556.615 Q77.6255 556.334 77.9417 556.334 Q78.2579 556.334 79.1714 557.036 Q80.0848 557.704 81.3145 559.144 Q82.5442 560.585 83.7036 562.447 Q84.863 564.309 85.636 567.05 Q86.444 569.79 86.444 572.671 Q86.444 577.836 82.755 580.927 Q79.066 583.984 73.4094 583.984 Q69.7907 583.984 66.5935 582.789 Q63.3612 581.595 61.0775 579.662 Q58.7938 577.695 57.1426 575.236 Q55.4561 572.741 54.6481 570.141 Q53.84 567.541 53.84 565.117 Q53.84 561.569 55.6318 559.496 Q57.4236 557.423 59.9533 557.423 Q60.5505 557.423 61.2883 557.599 Q62.0261 557.739 63.1856 558.231 Q64.345 558.688 65.5044 559.882 Q66.6287 561.077 67.3665 562.833 Q69.0177 566.733 69.0177 573.83 L69.0177 577.66 Q73.55 578.784 76.5012 578.784 Q77.6606 578.784 78.8552 578.573 Q80.0146 578.363 81.4902 577.8 Q82.9658 577.203 83.9144 575.868 Q84.8279 574.498 84.8279 572.53 Q84.8279 571.898 84.7928 571.23 Q84.7576 570.528 84.3712 568.771 Q83.9847 566.979 83.3171 565.398 Q82.6496 563.817 81.2091 561.815 Q79.7335 559.777 77.7309 558.161 Q76.9931 557.599 76.9931 557.212 Q76.9931 556.896 77.3093 556.615 M59.9533 559.812 Q58.0209 559.812 56.721 561.252 Q55.421 562.658 55.421 565.117 Q55.421 565.89 55.5967 566.839 Q55.7723 567.787 56.5102 569.368 Q57.248 570.914 58.4776 572.284 Q59.6722 573.655 62.0261 575.025 Q64.345 576.395 67.4367 577.203 L67.4367 574.252 Q67.4367 573.233 67.4367 572.495 Q67.4016 571.757 67.2611 570.141 Q67.1205 568.49 66.8746 567.295 Q66.5935 566.101 66.0314 564.59 Q65.4692 563.079 64.7314 562.131 Q63.9585 561.147 62.7288 560.48 Q61.4991 559.812 59.9533 559.812 Z" fill="#000000" fill-rule="nonzero" fill-opacity="1" /><path clip-path="url(#clip810)" d="M93.8309 529.763 Q94.0522 529.566 94.2736 529.566 Q94.4949 529.566 95.1343 530.058 Q95.7738 530.525 96.6346 531.533 Q97.4953 532.542 98.3069 533.845 Q99.1185 535.149 99.6596 537.067 Q100.225 538.985 100.225 541.002 Q100.225 544.617 97.6429 546.781 Q95.0606 548.921 91.101 548.921 Q88.5679 548.921 86.3298 548.085 Q84.0672 547.249 82.4687 545.896 Q80.8701 544.519 79.7142 542.797 Q78.5337 541.051 77.968 539.231 Q77.4024 537.411 77.4024 535.714 Q77.4024 533.23 78.6567 531.779 Q79.9109 530.328 81.6817 530.328 Q82.0998 530.328 82.6162 530.451 Q83.1327 530.55 83.9443 530.894 Q84.7559 531.214 85.5674 532.05 Q86.3544 532.886 86.8709 534.116 Q88.0268 536.846 88.0268 541.814 L88.0268 544.494 Q91.1994 545.281 93.2652 545.281 Q94.0768 545.281 94.913 545.134 Q95.7246 544.986 96.7575 544.593 Q97.7904 544.175 98.4545 543.24 Q99.0939 542.281 99.0939 540.904 Q99.0939 540.461 99.0693 539.994 Q99.0447 539.502 98.7742 538.272 Q98.5037 537.018 98.0364 535.911 Q97.5691 534.804 96.5608 533.403 Q95.5278 531.976 94.126 530.845 Q93.6095 530.451 93.6095 530.181 Q93.6095 529.959 93.8309 529.763 M81.6817 532.001 Q80.329 532.001 79.4191 533.009 Q78.5091 533.993 78.5091 535.714 Q78.5091 536.255 78.6321 536.919 Q78.755 537.583 79.2715 538.69 Q79.788 539.772 80.6487 540.731 Q81.4849 541.691 83.1327 542.65 Q84.7559 543.609 86.9201 544.175 L86.9201 542.109 Q86.9201 541.395 86.9201 540.879 Q86.8955 540.363 86.7971 539.231 Q86.6987 538.075 86.5266 537.239 Q86.3298 536.403 85.9363 535.345 Q85.5429 534.288 85.0264 533.624 Q84.4853 532.935 83.6246 532.468 Q82.7638 532.001 81.6817 532.001 Z" fill="#000000" fill-rule="nonzero" fill-opacity="1" /><path clip-path="url(#clip810)" d="M204.931 43.2358 Q204.931 30.4148 209.711 20.0764 Q211.749 15.741 214.603 12.1096 Q217.456 8.47819 219.346 6.88483 Q221.236 5.29146 221.754 5.29146 Q222.495 5.29146 222.532 6.03256 Q222.532 6.40311 221.532 7.32949 Q209.304 19.78 209.341 43.2358 Q209.341 66.7658 221.236 78.7345 Q222.532 80.0315 222.532 80.4391 Q222.532 81.1802 221.754 81.1802 Q221.236 81.1802 219.42 79.6609 Q217.604 78.1417 214.788 74.6585 Q211.972 71.1753 209.934 66.914 Q204.931 56.5756 204.931 43.2358 Z" fill="#000000" fill-rule="nonzero" fill-opacity="1" /><path clip-path="url(#clip810)" d="M228.943 45.4962 Q228.943 38.3446 233.538 33.268 Q238.133 28.1915 244.728 28.1915 Q251.398 28.1915 254.844 32.5269 Q258.328 36.8624 258.328 43.0876 Q258.328 44.2363 258.031 44.4586 Q257.735 44.681 256.438 44.681 L235.242 44.681 Q235.242 52.4255 237.54 56.0569 Q240.726 61.1334 246.099 61.1334 Q246.841 61.1334 247.73 60.9852 Q248.619 60.837 250.435 60.207 Q252.251 59.54 253.844 57.7985 Q255.437 56.0569 256.364 53.3148 Q256.586 52.2402 257.327 52.2772 Q258.328 52.2772 258.328 53.1666 Q258.328 53.8336 257.587 55.3528 Q256.882 56.835 255.511 58.6137 Q254.14 60.3923 251.472 61.7263 Q248.842 63.0603 245.655 63.0603 Q238.985 63.0603 233.945 58.0208 Q228.943 52.9442 228.943 45.4962 M235.316 43.0876 L253.325 43.0876 Q253.325 41.4942 253.029 39.7156 Q252.769 37.9369 251.954 35.4913 Q251.176 33.0086 249.323 31.4523 Q247.471 29.896 244.728 29.896 Q243.506 29.896 242.172 30.4148 Q240.875 30.9335 239.281 32.1934 Q237.688 33.4533 236.576 36.3065 Q235.465 39.1598 235.316 43.0876 Z" fill="#000000" fill-rule="nonzero" fill-opacity="1" /><path clip-path="url(#clip810)" d="M264.849 80.4391 Q264.849 80.0685 265.813 79.1422 Q278.041 66.6917 278.041 43.2358 Q278.041 19.7059 266.294 7.8112 Q264.849 6.44017 264.849 6.03256 Q264.849 5.29146 265.59 5.29146 Q266.109 5.29146 267.925 6.81072 Q269.778 8.32997 272.557 11.8131 Q275.373 15.2963 277.448 19.5576 Q282.45 29.896 282.45 43.2358 Q282.45 56.0569 277.67 66.3952 Q275.632 70.7307 272.779 74.3621 Q269.926 77.9934 268.036 79.5868 Q266.146 81.1802 265.59 81.1802 Q264.849 81.1802 264.849 80.4391 Z" fill="#000000" fill-rule="nonzero" fill-opacity="1" /><polyline clip-path="url(#clip812)" style="stroke:#77aad9; stroke-linecap:round; stroke-linejoin:round; stroke-width:12; stroke-opacity:1; fill:none" points="220.436,909.901 298.224,883.514 343.728,858.703 376.013,835.314 401.055,813.21 421.516,792.273 438.816,772.396 453.801,753.49 467.02,735.472 478.844,718.272 489.54,701.826 499.305,686.077 508.287,670.975 516.604,656.474 524.347,642.533 531.59,629.115 538.393,616.188 544.808,603.719 550.876,591.682 556.632,580.051 562.108,568.803 567.328,557.916 572.317,547.371 577.093,537.15 581.674,527.234 586.076,517.61 590.311,508.263 594.393,499.178 598.331,490.345 602.135,481.75 605.815,473.383 609.378,465.234 612.832,457.294 616.182,449.553 619.435,442.002 622.597,434.635 625.671,427.444 628.664,420.42 631.579,413.559 634.421,406.854 637.192,400.298 639.896,393.886 642.537,387.614 645.117,381.475 647.639,375.465 650.105,369.58 652.519,363.815 654.882,358.166 657.196,352.629 659.463,347.201 661.685,341.878 663.864,336.656 666.002,331.533 668.1,326.505 670.159,321.569 672.181,316.723 674.168,311.964 676.119,307.289 678.038,302.695 679.924,298.182 681.779,293.745 683.604,289.383 685.399,285.094 687.167,280.876 688.907,276.727 690.62,272.645 692.308,268.628 693.97,264.674 695.609,260.783 697.224,256.952 698.815,253.179 700.385,249.464 701.933,245.804 703.46,242.199 704.966,238.647 706.453,235.147 707.92,231.698 709.368,228.297 710.797,224.945 712.209,221.64 713.603,218.381 714.98,215.167 716.341,211.997 717.685,208.87 719.013,205.784 720.325,202.74 721.623,199.736 722.905,196.771 724.173,193.845 725.427,190.956 726.667,188.104 727.894,185.288 729.107,182.507 730.307,179.761 731.495,177.049 732.67,174.37 733.833,171.724 734.984,169.109 736.124,166.526 737.251,163.973 "/>
<polyline clip-path="url(#clip812)" style="stroke:#2f9570; stroke-linecap:round; stroke-linejoin:round; stroke-width:12; stroke-opacity:1; fill:none" points="220.436,936.248 298.224,934.506 343.728,932.812 376.013,931.162 401.055,929.554 421.516,927.986 438.816,926.455 453.801,924.961 467.02,923.501 478.844,922.073 489.54,920.677 499.305,919.311 508.287,917.974 516.604,916.664 524.347,915.381 531.59,914.123 538.393,912.889 544.808,911.679 550.876,910.492 556.632,909.326 562.108,908.181 567.328,907.057 572.317,905.953 577.093,904.867 581.674,903.8 586.076,902.751 590.311,901.718 594.393,900.703 598.331,899.704 602.135,898.72 605.815,897.752 609.378,896.799 612.832,895.86 616.182,894.935 619.435,894.024 622.597,893.126 625.671,892.24 628.664,891.368 631.579,890.507 634.421,889.659 637.192,888.822 639.896,887.996 642.537,887.181 645.117,886.378 647.639,885.584 650.105,884.801 652.519,884.028 654.882,883.265 657.196,882.511 659.463,881.767 661.685,881.031 663.864,880.305 666.002,879.587 668.1,878.878 670.159,878.177 672.181,877.485 674.168,876.8 676.119,876.123 678.038,875.454 679.924,874.793 681.779,874.139 683.604,873.492 685.399,872.852 687.167,872.219 688.907,871.593 690.62,870.973 692.308,870.361 693.97,869.754 695.609,869.154 697.224,868.56 698.815,867.972 700.385,867.39 701.933,866.814 703.46,866.244 704.966,865.679 706.453,865.12 707.92,864.566 709.368,864.018 710.797,863.475 712.209,862.937 713.603,862.404 714.98,861.876 716.341,861.353 717.685,860.835 719.013,860.322 720.325,859.814 721.623,859.31 722.905,858.81 724.173,858.315 725.427,857.825 726.667,857.338 727.894,856.856 729.107,856.379 730.307,855.905 731.495,855.435 732.67,854.97 733.833,854.508 734.984,854.05 736.124,853.596 737.251,853.146 "/>
<polyline clip-path="url(#clip812)" style="stroke:#b04a69; stroke-linecap:round; stroke-linejoin:round; stroke-width:12; stroke-opacity:1; fill:none" points="220.436,938.014 298.224,937.989 343.728,937.964 376.013,937.939 401.055,937.914 421.516,937.89 438.816,937.865 453.801,937.841 467.02,937.816 478.844,937.792 489.54,937.768 499.305,937.744 508.287,937.72 516.604,937.696 524.347,937.672 531.59,937.648 538.393,937.625 544.808,937.601 550.876,937.578 556.632,937.554 562.108,937.531 567.328,937.508 572.317,937.485 577.093,937.462 581.674,937.439 586.076,937.416 590.311,937.393 594.393,937.37 598.331,937.347 602.135,937.325 605.815,937.302 609.378,937.28 612.832,937.257 616.182,937.235 619.435,937.213 622.597,937.191 625.671,937.169 628.664,937.147 631.579,937.125 634.421,937.103 637.192,937.081 639.896,937.059 642.537,937.038 645.117,937.016 647.639,936.995 650.105,936.973 652.519,936.952 654.882,936.93 657.196,936.909 659.463,936.888 661.685,936.867 663.864,936.846 666.002,936.825 668.1,936.804 670.159,936.783 672.181,936.762 674.168,936.742 676.119,936.721 678.038,936.7 679.924,936.68 681.779,936.66 683.604,936.639 685.399,936.619 687.167,936.598 688.907,936.578 690.62,936.558 692.308,936.538 693.97,936.518 695.609,936.498 697.224,936.478 698.815,936.458 700.385,936.438 701.933,936.419 703.46,936.399 704.966,936.379 706.453,936.36 707.92,936.34 709.368,936.321 710.797,936.302 712.209,936.282 713.603,936.263 714.98,936.244 716.341,936.224 717.685,936.205 719.013,936.186 720.325,936.167 721.623,936.148 722.905,936.129 724.173,936.111 725.427,936.092 726.667,936.073 727.894,936.054 729.107,936.036 730.307,936.017 731.495,935.999 732.67,935.98 733.833,935.962 734.984,935.943 736.124,935.925 737.251,935.907 "/>
<path clip-path="url(#clip810)" d="M223.192 375.462 L482.181 375.462 L482.181 168.102 L223.192 168.102  Z" fill="#ffffff" fill-rule="evenodd" fill-opacity="1"/>
<polyline clip-path="url(#clip810)" style="stroke:#000000; stroke-linecap:round; stroke-linejoin:round; stroke-width:4; stroke-opacity:1; fill:none" points="223.192,375.462 482.181,375.462 482.181,168.102 223.192,168.102 223.192,375.462 "/>
<polyline clip-path="url(#clip810)" style="stroke:#77aad9; stroke-linecap:round; stroke-linejoin:round; stroke-width:12; stroke-opacity:1; fill:none" points="229.279,219.942 265.801,219.942 "/>
<path clip-path="url(#clip810)" d="M297.254 208.741 Q297.254 210.381 294.912 210.381 L289.642 210.381 Q291.117 212.489 291.117 215.604 Q291.117 218.274 290.017 220.78 Q288.939 223.263 287.206 224.996 Q285.496 226.729 283.341 227.783 Q281.186 228.814 279.078 228.814 Q275.869 228.814 273.879 226.636 Q271.888 224.457 271.888 221.225 Q271.888 219.515 272.473 217.618 Q273.082 215.721 274.23 213.964 Q275.378 212.184 276.877 210.755 Q278.399 209.327 280.367 208.46 Q282.357 207.593 284.442 207.593 L295.38 207.593 Q295.966 207.593 296.27 207.64 Q296.598 207.664 296.926 207.945 Q297.254 208.202 297.254 208.741 M288.049 215.042 Q288.049 214.479 287.979 213.988 Q287.909 213.472 287.651 212.793 Q287.393 212.09 286.948 211.599 Q286.503 211.083 285.637 210.732 Q284.793 210.381 283.646 210.381 Q282.03 210.381 280.249 211.271 Q278.469 212.161 277.111 214.362 Q275.987 216.236 275.424 218.672 Q274.862 221.108 274.862 222.56 Q274.862 225.043 276.057 226.402 Q277.275 227.737 279.125 227.737 Q280.648 227.737 282.381 226.706 Q284.114 225.652 285.449 223.661 Q286.62 221.928 287.323 219.398 Q288.049 216.869 288.049 215.042 Z" fill="#000000" fill-rule="nonzero" fill-opacity="1" /><path clip-path="url(#clip810)" d="M304.338 241.073 Q302.125 238.876 302.125 235.695 Q302.125 232.498 304.289 230.17 Q306.47 227.825 309.585 227.825 Q312.634 227.825 314.815 230.153 Q317.012 232.465 317.012 235.695 Q317.012 238.86 314.799 241.057 Q312.602 243.254 309.552 243.254 Q306.568 243.254 304.338 241.073 M304.912 235.417 Q304.912 238.679 305.765 240.155 Q307.076 242.401 309.585 242.401 Q310.831 242.401 311.864 241.729 Q312.913 241.057 313.487 239.925 Q314.225 238.45 314.225 235.417 Q314.225 232.187 313.34 230.76 Q312.028 228.579 309.552 228.579 Q308.47 228.579 307.404 229.153 Q306.355 229.711 305.716 230.826 Q304.912 232.301 304.912 235.417 Z" fill="#000000" fill-rule="nonzero" fill-opacity="1" /><path clip-path="url(#clip810)" d="M318.753 229.448 L318.753 228.399 L321.392 228.399 L321.392 224.546 Q321.392 222.054 322.999 220.628 Q324.622 219.201 326.606 219.201 Q327.918 219.201 328.77 219.906 Q329.623 220.611 329.623 221.562 Q329.623 222.202 329.229 222.628 Q328.852 223.038 328.147 223.038 Q327.475 223.038 327.082 222.611 Q326.705 222.185 326.705 221.595 Q326.705 220.513 327.705 220.185 Q327.196 219.955 326.606 219.939 Q325.393 219.939 324.442 221.185 Q323.507 222.431 323.507 224.513 L323.507 228.399 L327.442 228.399 L327.442 229.448 L323.622 229.448 L323.622 240.253 Q323.622 241.221 324.016 241.532 Q324.425 241.844 326.163 241.844 L326.868 241.844 L326.868 242.877 Q325.524 242.778 322.606 242.778 Q322.196 242.778 321.556 242.795 Q320.933 242.811 320.081 242.844 Q319.244 242.877 318.785 242.877 L318.785 241.844 Q320.573 241.844 320.982 241.63 Q321.392 241.401 321.392 240.319 L321.392 229.448 L318.753 229.448 Z" fill="#000000" fill-rule="nonzero" fill-opacity="1" /><path clip-path="url(#clip810)" d="M331.423 229.448 L331.423 228.399 L334.063 228.399 L334.063 224.546 Q334.063 222.054 335.67 220.628 Q337.293 219.201 339.277 219.201 Q340.589 219.201 341.441 219.906 Q342.294 220.611 342.294 221.562 Q342.294 222.202 341.9 222.628 Q341.523 223.038 340.818 223.038 Q340.146 223.038 339.752 222.611 Q339.375 222.185 339.375 221.595 Q339.375 220.513 340.375 220.185 Q339.867 219.955 339.277 219.939 Q338.064 219.939 337.113 221.185 Q336.178 222.431 336.178 224.513 L336.178 228.399 L340.113 228.399 L340.113 229.448 L336.293 229.448 L336.293 240.253 Q336.293 241.221 336.686 241.532 Q337.096 241.844 338.834 241.844 L339.539 241.844 L339.539 242.877 Q338.195 242.778 335.276 242.778 Q334.866 242.778 334.227 242.795 Q333.604 242.811 332.751 242.844 Q331.915 242.877 331.456 242.877 L331.456 241.844 Q333.243 241.844 333.653 241.63 Q334.063 241.401 334.063 240.319 L334.063 229.448 L331.423 229.448 Z" fill="#000000" fill-rule="nonzero" fill-opacity="1" /><path clip-path="url(#clip810)" d="M359.983 220.991 Q360.03 220.405 360.943 220.405 L390.338 220.405 Q391.72 220.405 391.744 220.944 Q391.744 221.53 390.432 221.506 L361.271 221.506 Q359.983 221.53 359.983 220.991 M359.983 211.622 Q359.983 211.036 360.99 211.06 L390.291 211.06 Q391.72 211.06 391.744 211.622 Q391.744 212.161 390.526 212.161 L360.943 212.161 Q359.983 212.161 359.983 211.622 Z" fill="#000000" fill-rule="nonzero" fill-opacity="1" /><path clip-path="url(#clip810)" d="M410.243 200.894 L410.243 199.395 Q416.005 199.395 418.979 196.327 Q419.799 196.327 419.94 196.514 Q420.08 196.702 420.08 197.568 L420.08 224.481 Q420.08 225.91 420.783 226.355 Q421.486 226.8 424.554 226.8 L426.076 226.8 L426.076 228.275 Q424.39 228.135 418.3 228.135 Q412.21 228.135 410.547 228.275 L410.547 226.8 L412.07 226.8 Q415.091 226.8 415.817 226.378 Q416.544 225.933 416.544 224.481 L416.544 199.63 Q414.037 200.894 410.243 200.894 Z" fill="#000000" fill-rule="nonzero" fill-opacity="1" /><polyline clip-path="url(#clip810)" style="stroke:#2f9570; stroke-linecap:round; stroke-linejoin:round; stroke-width:12; stroke-opacity:1; fill:none" points="229.279,271.782 265.801,271.782 "/>
<path clip-path="url(#clip810)" d="M297.254 260.581 Q297.254 262.221 294.912 262.221 L289.642 262.221 Q291.117 264.329 291.117 267.444 Q291.117 270.114 290.017 272.62 Q288.939 275.103 287.206 276.836 Q285.496 278.569 283.341 279.623 Q281.186 280.654 279.078 280.654 Q275.869 280.654 273.879 278.476 Q271.888 276.297 271.888 273.065 Q271.888 271.355 272.473 269.458 Q273.082 267.561 274.23 265.804 Q275.378 264.024 276.877 262.595 Q278.399 261.167 280.367 260.3 Q282.357 259.433 284.442 259.433 L295.38 259.433 Q295.966 259.433 296.27 259.48 Q296.598 259.504 296.926 259.785 Q297.254 260.042 297.254 260.581 M288.049 266.882 Q288.049 266.319 287.979 265.828 Q287.909 265.312 287.651 264.633 Q287.393 263.93 286.948 263.439 Q286.503 262.923 285.637 262.572 Q284.793 262.221 283.646 262.221 Q282.03 262.221 280.249 263.111 Q278.469 264.001 277.111 266.202 Q275.987 268.076 275.424 270.512 Q274.862 272.948 274.862 274.4 Q274.862 276.883 276.057 278.242 Q277.275 279.577 279.125 279.577 Q280.648 279.577 282.381 278.546 Q284.114 277.492 285.449 275.501 Q286.62 273.768 287.323 271.238 Q288.049 268.709 288.049 266.882 Z" fill="#000000" fill-rule="nonzero" fill-opacity="1" /><path clip-path="url(#clip810)" d="M304.338 292.913 Q302.125 290.716 302.125 287.535 Q302.125 284.338 304.289 282.01 Q306.47 279.665 309.585 279.665 Q312.634 279.665 314.815 281.993 Q317.012 284.305 317.012 287.535 Q317.012 290.7 314.799 292.897 Q312.602 295.094 309.552 295.094 Q306.568 295.094 304.338 292.913 M304.912 287.257 Q304.912 290.519 305.765 291.995 Q307.076 294.241 309.585 294.241 Q310.831 294.241 311.864 293.569 Q312.913 292.897 313.487 291.765 Q314.225 290.29 314.225 287.257 Q314.225 284.027 313.34 282.6 Q312.028 280.419 309.552 280.419 Q308.47 280.419 307.404 280.993 Q306.355 281.551 305.716 282.666 Q304.912 284.141 304.912 287.257 Z" fill="#000000" fill-rule="nonzero" fill-opacity="1" /><path clip-path="url(#clip810)" d="M318.753 281.288 L318.753 280.239 L321.392 280.239 L321.392 276.386 Q321.392 273.894 322.999 272.468 Q324.622 271.041 326.606 271.041 Q327.918 271.041 328.77 271.746 Q329.623 272.451 329.623 273.402 Q329.623 274.042 329.229 274.468 Q328.852 274.878 328.147 274.878 Q327.475 274.878 327.082 274.451 Q326.705 274.025 326.705 273.435 Q326.705 272.353 327.705 272.025 Q327.196 271.795 326.606 271.779 Q325.393 271.779 324.442 273.025 Q323.507 274.271 323.507 276.353 L323.507 280.239 L327.442 280.239 L327.442 281.288 L323.622 281.288 L323.622 292.093 Q323.622 293.061 324.016 293.372 Q324.425 293.684 326.163 293.684 L326.868 293.684 L326.868 294.717 Q325.524 294.618 322.606 294.618 Q322.196 294.618 321.556 294.635 Q320.933 294.651 320.081 294.684 Q319.244 294.717 318.785 294.717 L318.785 293.684 Q320.573 293.684 320.982 293.47 Q321.392 293.241 321.392 292.159 L321.392 281.288 L318.753 281.288 Z" fill="#000000" fill-rule="nonzero" fill-opacity="1" /><path clip-path="url(#clip810)" d="M331.423 281.288 L331.423 280.239 L334.063 280.239 L334.063 276.386 Q334.063 273.894 335.67 272.468 Q337.293 271.041 339.277 271.041 Q340.589 271.041 341.441 271.746 Q342.294 272.451 342.294 273.402 Q342.294 274.042 341.9 274.468 Q341.523 274.878 340.818 274.878 Q340.146 274.878 339.752 274.451 Q339.375 274.025 339.375 273.435 Q339.375 272.353 340.375 272.025 Q339.867 271.795 339.277 271.779 Q338.064 271.779 337.113 273.025 Q336.178 274.271 336.178 276.353 L336.178 280.239 L340.113 280.239 L340.113 281.288 L336.293 281.288 L336.293 292.093 Q336.293 293.061 336.686 293.372 Q337.096 293.684 338.834 293.684 L339.539 293.684 L339.539 294.717 Q338.195 294.618 335.276 294.618 Q334.866 294.618 334.227 294.635 Q333.604 294.651 332.751 294.684 Q331.915 294.717 331.456 294.717 L331.456 293.684 Q333.243 293.684 333.653 293.47 Q334.063 293.241 334.063 292.159 L334.063 281.288 L331.423 281.288 Z" fill="#000000" fill-rule="nonzero" fill-opacity="1" /><path clip-path="url(#clip810)" d="M359.983 272.831 Q360.03 272.245 360.943 272.245 L390.338 272.245 Q391.72 272.245 391.744 272.784 Q391.744 273.37 390.432 273.346 L361.271 273.346 Q359.983 273.37 359.983 272.831 M359.983 263.462 Q359.983 262.876 360.99 262.9 L390.291 262.9 Q391.72 262.9 391.744 263.462 Q391.744 264.001 390.526 264.001 L360.943 264.001 Q359.983 264.001 359.983 263.462 Z" fill="#000000" fill-rule="nonzero" fill-opacity="1" /><path clip-path="url(#clip810)" d="M410.243 252.734 L410.243 251.235 Q416.005 251.235 418.979 248.167 Q419.799 248.167 419.94 248.354 Q420.08 248.542 420.08 249.408 L420.08 276.321 Q420.08 277.75 420.783 278.195 Q421.486 278.64 424.554 278.64 L426.076 278.64 L426.076 280.115 Q424.39 279.975 418.3 279.975 Q412.21 279.975 410.547 280.115 L410.547 278.64 L412.07 278.64 Q415.091 278.64 415.817 278.218 Q416.544 277.773 416.544 276.321 L416.544 251.47 Q414.037 252.734 410.243 252.734 Z" fill="#000000" fill-rule="nonzero" fill-opacity="1" /><path clip-path="url(#clip810)" d="M428.394 264.774 Q428.394 257.723 430.174 253.882 Q432.657 248.167 438.512 248.167 Q439.754 248.167 441.042 248.518 Q442.354 248.846 443.993 250.135 Q445.656 251.423 446.663 253.531 Q448.584 257.606 448.584 264.774 Q448.584 271.777 446.804 275.595 Q444.204 281.169 438.465 281.169 Q436.311 281.169 434.109 280.068 Q431.931 278.968 430.549 276.321 Q428.394 272.362 428.394 264.774 M432.376 264.188 Q432.376 271.426 432.891 274.307 Q433.476 277.422 435.069 278.78 Q436.685 280.115 438.465 280.115 Q440.386 280.115 441.979 278.687 Q443.595 277.234 444.087 274.119 Q444.626 271.051 444.602 264.188 Q444.602 257.513 444.134 254.842 Q443.501 251.727 441.815 250.486 Q440.152 249.221 438.465 249.221 Q437.833 249.221 437.154 249.408 Q436.498 249.596 435.538 250.135 Q434.577 250.673 433.828 252.008 Q433.102 253.343 432.75 255.358 Q432.376 257.958 432.376 264.188 Z" fill="#000000" fill-rule="nonzero" fill-opacity="1" /><polyline clip-path="url(#clip810)" style="stroke:#b04a69; stroke-linecap:round; stroke-linejoin:round; stroke-width:12; stroke-opacity:1; fill:none" points="229.279,323.622 265.801,323.622 "/>
<path clip-path="url(#clip810)" d="M297.254 312.421 Q297.254 314.061 294.912 314.061 L289.642 314.061 Q291.117 316.169 291.117 319.284 Q291.117 321.954 290.017 324.46 Q288.939 326.943 287.206 328.676 Q285.496 330.409 283.341 331.463 Q281.186 332.494 279.078 332.494 Q275.869 332.494 273.879 330.316 Q271.888 328.137 271.888 324.905 Q271.888 323.195 272.473 321.298 Q273.082 319.401 274.23 317.644 Q275.378 315.864 276.877 314.435 Q278.399 313.007 280.367 312.14 Q282.357 311.273 284.442 311.273 L295.38 311.273 Q295.966 311.273 296.27 311.32 Q296.598 311.344 296.926 311.625 Q297.254 311.882 297.254 312.421 M288.049 318.722 Q288.049 318.159 287.979 317.668 Q287.909 317.152 287.651 316.473 Q287.393 315.77 286.948 315.279 Q286.503 314.763 285.637 314.412 Q284.793 314.061 283.646 314.061 Q282.03 314.061 280.249 314.951 Q278.469 315.841 277.111 318.042 Q275.987 319.916 275.424 322.352 Q274.862 324.788 274.862 326.24 Q274.862 328.723 276.057 330.082 Q277.275 331.417 279.125 331.417 Q280.648 331.417 282.381 330.386 Q284.114 329.332 285.449 327.341 Q286.62 325.608 287.323 323.078 Q288.049 320.549 288.049 318.722 Z" fill="#000000" fill-rule="nonzero" fill-opacity="1" /><path clip-path="url(#clip810)" d="M304.338 344.753 Q302.125 342.556 302.125 339.375 Q302.125 336.178 304.289 333.85 Q306.47 331.505 309.585 331.505 Q312.634 331.505 314.815 333.833 Q317.012 336.145 317.012 339.375 Q317.012 342.54 314.799 344.737 Q312.602 346.934 309.552 346.934 Q306.568 346.934 304.338 344.753 M304.912 339.097 Q304.912 342.359 305.765 343.835 Q307.076 346.081 309.585 346.081 Q310.831 346.081 311.864 345.409 Q312.913 344.737 313.487 343.605 Q314.225 342.13 314.225 339.097 Q314.225 335.867 313.34 334.44 Q312.028 332.259 309.552 332.259 Q308.47 332.259 307.404 332.833 Q306.355 333.391 305.716 334.506 Q304.912 335.981 304.912 339.097 Z" fill="#000000" fill-rule="nonzero" fill-opacity="1" /><path clip-path="url(#clip810)" d="M318.753 333.128 L318.753 332.079 L321.392 332.079 L321.392 328.226 Q321.392 325.734 322.999 324.308 Q324.622 322.881 326.606 322.881 Q327.918 322.881 328.77 323.586 Q329.623 324.291 329.623 325.242 Q329.623 325.882 329.229 326.308 Q328.852 326.718 328.147 326.718 Q327.475 326.718 327.082 326.291 Q326.705 325.865 326.705 325.275 Q326.705 324.193 327.705 323.865 Q327.196 323.635 326.606 323.619 Q325.393 323.619 324.442 324.865 Q323.507 326.111 323.507 328.193 L323.507 332.079 L327.442 332.079 L327.442 333.128 L323.622 333.128 L323.622 343.933 Q323.622 344.901 324.016 345.212 Q324.425 345.524 326.163 345.524 L326.868 345.524 L326.868 346.557 Q325.524 346.458 322.606 346.458 Q322.196 346.458 321.556 346.475 Q320.933 346.491 320.081 346.524 Q319.244 346.557 318.785 346.557 L318.785 345.524 Q320.573 345.524 320.982 345.31 Q321.392 345.081 321.392 343.999 L321.392 333.128 L318.753 333.128 Z" fill="#000000" fill-rule="nonzero" fill-opacity="1" /><path clip-path="url(#clip810)" d="M331.423 333.128 L331.423 332.079 L334.063 332.079 L334.063 328.226 Q334.063 325.734 335.67 324.308 Q337.293 322.881 339.277 322.881 Q340.589 322.881 341.441 323.586 Q342.294 324.291 342.294 325.242 Q342.294 325.882 341.9 326.308 Q341.523 326.718 340.818 326.718 Q340.146 326.718 339.752 326.291 Q339.375 325.865 339.375 325.275 Q339.375 324.193 340.375 323.865 Q339.867 323.635 339.277 323.619 Q338.064 323.619 337.113 324.865 Q336.178 326.111 336.178 328.193 L336.178 332.079 L340.113 332.079 L340.113 333.128 L336.293 333.128 L336.293 343.933 Q336.293 344.901 336.686 345.212 Q337.096 345.524 338.834 345.524 L339.539 345.524 L339.539 346.557 Q338.195 346.458 335.276 346.458 Q334.866 346.458 334.227 346.475 Q333.604 346.491 332.751 346.524 Q331.915 346.557 331.456 346.557 L331.456 345.524 Q333.243 345.524 333.653 345.31 Q334.063 345.081 334.063 343.999 L334.063 333.128 L331.423 333.128 Z" fill="#000000" fill-rule="nonzero" fill-opacity="1" /><path clip-path="url(#clip810)" d="M359.983 324.671 Q360.03 324.085 360.943 324.085 L390.338 324.085 Q391.72 324.085 391.744 324.624 Q391.744 325.21 390.432 325.186 L361.271 325.186 Q359.983 325.21 359.983 324.671 M359.983 315.302 Q359.983 314.716 360.99 314.74 L390.291 314.74 Q391.72 314.74 391.744 315.302 Q391.744 315.841 390.526 315.841 L360.943 315.841 Q359.983 315.841 359.983 315.302 Z" fill="#000000" fill-rule="nonzero" fill-opacity="1" /><path clip-path="url(#clip810)" d="M410.243 304.574 L410.243 303.075 Q416.005 303.075 418.979 300.007 Q419.799 300.007 419.94 300.194 Q420.08 300.382 420.08 301.248 L420.08 328.161 Q420.08 329.59 420.783 330.035 Q421.486 330.48 424.554 330.48 L426.076 330.48 L426.076 331.955 Q424.39 331.815 418.3 331.815 Q412.21 331.815 410.547 331.955 L410.547 330.48 L412.07 330.48 Q415.091 330.48 415.817 330.058 Q416.544 329.613 416.544 328.161 L416.544 303.31 Q414.037 304.574 410.243 304.574 Z" fill="#000000" fill-rule="nonzero" fill-opacity="1" /><path clip-path="url(#clip810)" d="M428.394 316.614 Q428.394 309.563 430.174 305.722 Q432.657 300.007 438.512 300.007 Q439.754 300.007 441.042 300.358 Q442.354 300.686 443.993 301.975 Q445.656 303.263 446.663 305.371 Q448.584 309.446 448.584 316.614 Q448.584 323.617 446.804 327.435 Q444.204 333.009 438.465 333.009 Q436.311 333.009 434.109 331.908 Q431.931 330.808 430.549 328.161 Q428.394 324.202 428.394 316.614 M432.376 316.028 Q432.376 323.266 432.891 326.147 Q433.476 329.262 435.069 330.62 Q436.685 331.955 438.465 331.955 Q440.386 331.955 441.979 330.527 Q443.595 329.074 444.087 325.959 Q444.626 322.891 444.602 316.028 Q444.602 309.353 444.134 306.682 Q443.501 303.567 441.815 302.326 Q440.152 301.061 438.465 301.061 Q437.833 301.061 437.154 301.248 Q436.498 301.436 435.538 301.975 Q434.577 302.513 433.828 303.848 Q433.102 305.183 432.75 307.198 Q432.376 309.798 432.376 316.028 Z" fill="#000000" fill-rule="nonzero" fill-opacity="1" /><path clip-path="url(#clip810)" d="M452.34 316.614 Q452.34 309.563 454.12 305.722 Q456.603 300.007 462.458 300.007 Q463.7 300.007 464.988 300.358 Q466.299 300.686 467.939 301.975 Q469.602 303.263 470.609 305.371 Q472.53 309.446 472.53 316.614 Q472.53 323.617 470.75 327.435 Q468.15 333.009 462.411 333.009 Q460.256 333.009 458.055 331.908 Q455.876 330.808 454.495 328.161 Q452.34 324.202 452.34 316.614 M456.322 316.028 Q456.322 323.266 456.837 326.147 Q457.422 329.262 459.015 330.62 Q460.631 331.955 462.411 331.955 Q464.332 331.955 465.925 330.527 Q467.541 329.074 468.033 325.959 Q468.571 322.891 468.548 316.028 Q468.548 309.353 468.08 306.682 Q467.447 303.567 465.761 302.326 Q464.098 301.061 462.411 301.061 Q461.779 301.061 461.1 301.248 Q460.444 301.436 459.484 301.975 Q458.523 302.513 457.774 303.848 Q457.048 305.183 456.696 307.198 Q456.322 309.798 456.322 316.028 Z" fill="#000000" fill-rule="nonzero" fill-opacity="1" /></svg>
